<svg width="65" height="65" viewBox="0 0 65 65" fill="none" xmlns="http://www.w3.org/2000/svg">
<path d="M48.75 13C45.2981 10.9257 41.3574 9.80482 37.3305 9.75196C33.3037 9.6991 29.3349 10.7161 25.8298 12.6991C22.3246 14.6822 19.4087 17.5601 17.3798 21.0389C15.351 24.5177 14.282 28.4728 14.282 32.5C14.282 36.5272 15.351 40.4823 17.3798 43.9611C19.4087 47.4399 22.3246 50.3178 25.8298 52.3009C29.3349 54.2839 33.3037 55.3009 37.3305 55.248C41.3574 55.1952 45.2981 54.0743 48.75 52" stroke="#2E8B57" stroke-width="12" stroke-linecap="round"/>
<path d="M38.35 15.6H33.15V31.2H38.35V15.6Z" fill="#2E8B57"/>
<path d="M43.55 20.8H27.95V26H43.55V20.8Z" fill="#2E8B57"/>
<path d="M38.35 33.475H33.15V49.075H38.35V33.475Z" fill="#2E8B57"/>
<path d="M43.55 38.675H27.95V43.875H43.55V38.675Z" fill="#2E8B57"/>
</svg>
